<?xml version="1.0" standalone="no"?>
<!DOCTYPE svg PUBLIC "-//W3C//DTD SVG 20010904//EN"
 "http://www.w3.org/TR/2001/REC-SVG-20010904/DTD/svg10.dtd">
<svg version="1.0" xmlns="http://www.w3.org/2000/svg"
 width="1020.000000pt" height="1020.000000pt" viewBox="0 0 1020.000000 1020.000000"
 preserveAspectRatio="xMidYMid meet">
<metadata>
Created by potrace 1.14, written by Peter Selinger 2001-2017
</metadata>
<g transform="translate(0.000000,1020.000000) scale(0.100000,-0.100000)"
fill="#000000" stroke="none">
<path d="M4516 9719 c-870 -50 -1694 -354 -2386 -882 -787 -600 -1347 -1439
-1590 -2380 -138 -536 -176 -1131 -104 -1646 8 -58 14 -112 14 -120 0 -9 -35
-38 -76 -66 -144 -95 -266 -250 -307 -391 -8 -29 -21 -95 -27 -147 -30 -240
64 -405 265 -466 22 -7 46 -14 53 -17 9 -3 -3 -23 -36 -59 -155 -169 -237
-380 -184 -474 24 -44 74 -71 132 -71 54 0 179 34 314 84 54 21 102 34 106 29
12 -12 101 -235 103 -256 2 -15 -12 -22 -70 -37 -104 -27 -179 -67 -244 -130
-63 -61 -92 -112 -114 -197 -33 -128 -12 -241 61 -322 61 -68 140 -110 309
-166 148 -49 218 -83 230 -112 4 -10 9 -85 10 -168 5 -238 39 -350 133 -442
100 -98 289 -118 496 -52 l61 19 39 -47 c71 -87 241 -247 325 -307 338 -242
781 -382 1345 -427 187 -15 646 -6 846 15 613 67 1236 213 1873 441 100 36
182 65 183 65 1 0 10 -24 19 -52 32 -97 78 -171 155 -248 290 -291 779 -217
968 146 126 244 79 480 -114 566 -24 10 -44 21 -44 23 0 2 53 32 118 66 1369
726 2237 1543 2476 2332 56 185 70 279 70 472 1 182 -11 261 -60 417 l-25 79
46 51 c112 124 174 274 183 437 7 154 -20 254 -99 358 l-39 52 38 6 c110 19
173 59 188 122 12 45 -4 131 -36 197 -61 129 -189 263 -348 365 -51 33 -52 34
-45 70 13 59 7 201 -12 271 -51 197 -163 403 -270 497 -170 151 -394 212 -667
184 -68 -6 -135 -14 -149 -17 -23 -5 -27 -1 -38 38 -47 157 -268 495 -505 773
-100 117 -325 344 -449 452 -521 459 -1171 796 -1847 957 -290 69 -492 98
-805 116 -200 11 -267 11 -469 -1z m699 -194 c1251 -133 2360 -814 3055 -1876
141 -216 174 -304 173 -474 0 -203 -50 -313 -281 -618 -216 -286 -556 -636
-887 -912 -689 -575 -1658 -1087 -2650 -1402 -991 -314 -1984 -402 -2842 -253
-272 48 -640 154 -803 233 -140 67 -258 202 -316 362 -54 147 -89 538 -81 880
8 336 48 628 128 935 189 734 564 1388 1098 1920 489 487 1023 813 1682 1029
327 106 672 170 1054 195 121 8 524 -4 670 -19z m3898 -2326 c145 -40 258
-138 340 -296 58 -113 96 -237 103 -332 5 -67 3 -81 -18 -121 -66 -122 -254
-192 -828 -311 -375 -77 -507 -112 -589 -152 -79 -38 -144 -100 -161 -151 -17
-52 -8 -158 25 -296 24 -100 27 -129 22 -225 -7 -178 -83 -379 -179 -475 -132
-132 -301 -152 -733 -90 -265 39 -365 38 -441 -1 -104 -54 -139 -179 -94 -339
44 -158 60 -254 60 -368 0 -361 -174 -615 -476 -692 -193 -50 -342 -16 -874
198 -341 137 -478 168 -618 138 -146 -30 -258 -115 -403 -303 -127 -165 -269
-265 -459 -325 -66 -20 -94 -23 -235 -23 -154 1 -163 2 -255 33 -182 63 -278
129 -460 314 -151 153 -202 183 -315 183 -133 -1 -224 -63 -453 -310 -184
-198 -303 -290 -441 -337 -56 -19 -86 -23 -196 -23 -115 0 -137 3 -190 25 -41
17 -67 36 -83 60 -22 32 -24 42 -19 125 4 73 15 121 57 250 63 195 70 273 31
343 -18 30 -39 49 -75 67 -57 28 -99 31 -291 15 -65 -6 -187 -10 -270 -11
-224 0 -312 29 -358 121 -43 87 -23 253 45 381 30 58 130 165 185 200 l31 20
42 -79 c74 -143 197 -270 337 -349 126 -70 515 -194 744 -237 613 -115 1142
-132 1749 -56 954 120 1989 467 2890 968 336 187 643 382 885 563 516 387 999
885 1322 1364 103 152 162 325 163 472 l0 61 68 11 c156 25 296 21 415 -10z
m603 -1000 c95 -66 204 -181 239 -253 15 -31 25 -59 22 -62 -3 -4 -91 -17
-194 -30 -227 -29 -313 -45 -503 -90 -319 -76 -704 -216 -992 -360 -48 -24
-89 -44 -91 -44 -2 0 -7 33 -11 73 -3 39 -17 119 -31 177 -32 136 -32 163 1
189 55 44 199 83 584 161 250 51 493 111 592 146 91 33 213 95 253 128 17 14
36 23 43 21 8 -3 47 -28 88 -56z m23 -590 c105 -70 151 -161 151 -298 0 -104
-27 -191 -91 -285 -83 -124 -188 -204 -402 -306 -157 -75 -198 -105 -231 -172
-37 -77 -47 -174 -44 -433 3 -225 3 -231 -21 -279 -17 -33 -38 -57 -70 -77
-80 -51 -152 -64 -446 -79 -345 -18 -510 -51 -670 -132 -109 -57 -253 -202
-462 -469 -287 -366 -397 -439 -679 -456 -101 -5 -111 -4 -118 12 -19 51 -29
283 -17 424 10 123 42 329 53 335 2 1 82 39 178 84 204 97 626 316 820 427
227 131 242 139 416 246 188 115 526 339 708 469 344 245 531 518 610 890 l22
105 80 17 c124 26 143 24 213 -23z m-864 -409 c10 -17 -29 -71 -107 -146 -94
-90 -157 -138 -353 -267 -244 -159 -277 -174 -340 -145 -89 41 8 164 256 325
126 81 325 182 429 217 82 28 106 31 115 16z m805 -628 c75 -271 21 -626 -150
-976 -53 -109 -174 -292 -280 -426 -103 -129 -415 -442 -570 -571 -502 -419
-1249 -875 -1940 -1184 l-85 -38 -97 33 c-106 35 -138 35 -196 0 -34 -21 -63
-75 -83 -154 -12 -47 10 -37 -347 -162 -813 -285 -1715 -445 -2367 -420 -313
11 -482 33 -724 93 -320 79 -581 206 -792 386 -68 58 -169 166 -169 180 0 3
17 11 38 17 51 17 194 94 412 223 262 156 321 179 378 148 12 -6 49 -52 83
-102 76 -113 118 -161 190 -214 157 -116 365 -111 529 12 73 55 133 130 200
253 67 125 106 170 182 210 57 31 73 35 158 38 152 6 326 -47 549 -165 262
-138 310 -157 455 -174 72 -8 124 -8 205 0 255 27 405 96 608 281 54 50 105
90 113 90 8 0 60 -44 115 -98 160 -157 299 -221 452 -210 130 10 217 70 271
186 23 51 24 63 20 162 -5 94 -11 123 -50 236 -25 71 -53 146 -62 166 l-16 36
78 7 c337 30 508 138 792 505 274 353 349 424 517 483 110 40 215 56 440 67
341 17 440 33 546 87 62 31 131 95 164 150 51 88 56 119 63 423 4 204 9 292
19 311 9 19 55 47 169 105 87 43 158 79 160 78 1 -1 11 -33 22 -72z m-2713 12
c65 -9 119 -17 121 -19 2 -2 -29 -43 -68 -91 -40 -49 -104 -137 -143 -197 -68
-101 -72 -105 -79 -80 -47 196 -78 332 -78 350 0 57 48 64 247 37z m-5901
-988 c3 -8 -3 -47 -13 -88 l-19 -73 -69 -23 c-67 -22 -238 -83 -504 -178 -68
-25 -131 -44 -139 -42 -20 4 43 122 110 205 75 93 184 183 222 184 25 1 312
21 389 28 10 0 20 -5 23 -13z m3832 -106 c41 -11 193 -68 340 -127 465 -184
598 -220 797 -210 160 8 310 57 414 135 l34 25 -7 -59 c-23 -196 -28 -284 -23
-409 10 -232 44 -387 129 -589 86 -205 99 -336 39 -396 -37 -38 -95 -46 -168
-25 -89 26 -139 59 -253 171 -111 109 -153 134 -222 134 -65 -1 -117 -30 -219
-125 -173 -160 -291 -220 -484 -246 -181 -24 -347 10 -480 98 -138 91 -237
202 -484 538 -85 116 -207 276 -271 356 l-117 146 76 38 c162 80 283 181 400
334 95 124 181 197 261 222 49 15 165 9 238 -11z m-3967 -867 c173 -256 434
-456 709 -544 176 -56 228 -64 440 -63 181 0 213 3 455 43 457 75 924 176
1358 293 103 28 189 49 190 47 21 -24 237 -320 237 -323 0 -2 -24 2 -52 10
-77 22 -245 29 -320 15 -164 -32 -301 -145 -398 -329 -96 -181 -192 -262 -309
-262 -106 1 -192 62 -291 210 -107 158 -182 206 -312 198 -92 -6 -158 -36
-413 -188 -406 -242 -737 -374 -891 -355 -133 16 -174 102 -174 364 0 268 -47
326 -346 431 -192 68 -245 96 -268 144 -20 43 -20 78 0 145 28 96 116 164 244
190 73 14 94 18 102 20 4 0 22 -20 39 -46z m6307 -1387 c56 -29 74 -69 68
-154 -6 -93 -46 -183 -116 -256 -209 -221 -571 -159 -702 120 -34 72 -46 165
-34 249 9 54 4 53 131 16 100 -30 211 -28 315 5 45 14 100 29 123 34 63 13
177 6 215 -14z"/>
</g>
</svg>
